<?xml version="1.0" encoding="utf-8"?>
<!-- Generator: Adobe Illustrator 27.4.0, SVG Export Plug-In . SVG Version: 6.00 Build 0)  -->
<svg version="1.1" id="Layer_1" xmlns="http://www.w3.org/2000/svg" xmlns:xlink="http://www.w3.org/1999/xlink" x="0px" y="0px"
	 viewBox="0 0 256 256" style="enable-background:new 0 0 256 256;" xml:space="preserve">
<style type="text/css">
	.st0{fill:#606060;}
</style>
<g id="XMLID_00000149360777692104097020000013503803077139991434_">
	<path class="st0" d="M139,256c-8.33,0-16.67,0-25,0c1.54-0.14,3.07-0.29,4.61-0.43c-0.31-0.21-0.62-0.26-0.93-0.29
		c-3.27-0.31-6.57-0.44-9.81-0.95C23.26,240.9,2.26,164.97,0.6,136.41c-0.17,1.56-0.39,3.45-0.6,5.34c0-8.58,0-17.17,0-25.75
		c0.15,1.37,0.31,2.74,0.44,3.99C2.51,88.08,14.8,60.54,37.35,37.88C59.87,15.25,87.33,2.79,119.17,0.46
		c-0.91-0.14-1.91-0.3-2.92-0.46c8.5,0,17,0,25.5,0c-1.62,0.14-3.25,0.29-4.72,0.42c31.7,2.55,59.16,14.82,81.66,37.51
		s34.7,50.2,36.93,82.14c0.13-0.71,0.26-1.39,0.38-2.06c0,6.33,0,12.67,0,19c-0.12-0.38-0.23-0.77-0.36-1.16
		c-2.24,31.92-14.34,59.55-36.83,82.21c-22.44,22.63-49.92,34.97-81.68,37.55C137.73,255.73,138.36,255.86,139,256z M128.02,105.21
		c-12.34-0.03-22.74,10.15-22.78,22.3c-0.04,13.01,9.9,23.2,22.69,23.25c12.63,0.05,22.79-10.06,22.84-22.72
		C150.82,115.45,140.64,105.24,128.02,105.21z M196.15,150.64c12.73,0.43,22.79-11.25,22.63-22.65
		c-0.17-12.47-10.3-22.58-22.5-22.79c-13.65-0.22-23.34,12.09-23.09,23.36C173.43,139.5,183.04,151.09,196.15,150.64z M60.26,150.64
		C72.94,151,82.93,139.35,82.78,128c-0.16-12.48-10.29-22.59-22.48-22.8c-13.63-0.23-23.4,12.07-23.1,23.47
		C37.48,139.53,47.06,151.14,60.26,150.64z"/>
</g>
<polygon class="st0" points="20,176 0,256 67.04,222.11 "/>
</svg>
