<?xml version="1.0" encoding="utf-8"?>
<!-- Generator: Adobe Illustrator 27.4.0, SVG Export Plug-In . SVG Version: 6.00 Build 0)  -->
<svg version="1.1" id="Logo" xmlns="http://www.w3.org/2000/svg" xmlns:xlink="http://www.w3.org/1999/xlink" x="0px" y="0px"
	 viewBox="0 0 279.33 281.33" style="enable-background:new 0 0 279.33 281.33;" xml:space="preserve">
<style type="text/css">
	.st0{fill:#36853F;}
</style>
<g>
	<path class="st0" d="M190.54,268.59c-15.74,6.3-32.91,9.76-50.9,9.76c-13.5,0-26.54-1.99-38.88-5.63
		c5.21-8.24,10.9-18.81,13.81-29.39c1.69-6.1,9.65-37.71,9.65-37.71c3.37,6.41,11.28,12.28,20.85,15.18
		c3.45,6.57,12,20.97,26.36,33.95C176.7,259.52,183.06,264.37,190.54,268.59z"/>
	<path class="st0" d="M276.83,141.15c0,44.79-21.47,84.57-54.67,109.61c-21.67-5.12-36.16-19.78-44.42-31.02
		c32.9-10.22,54.02-45.83,54.02-91.05c0-40.68-34.47-78.59-86.85-78.59c-65.18,0-98.05,46.73-98.05,85.7
		c0,23.6,8.93,44.59,28.1,52.42c3.14,1.28,5.95,0.04,6.87-3.44c0.62-2.4,2.13-8.48,2.79-11.01c0.92-3.44,0.57-4.64-1.97-7.64
		c-5.52-6.53-9.05-14.96-9.05-26.91c0-34.67,25.93-65.7,67.55-65.7c36.83,0,57.08,22.5,57.08,52.57c0,39.56-17.5,72.94-43.5,72.94
		c-14.35,0-25.09-11.87-21.65-26.42c4.11-17.38,12.11-36.14,12.11-48.69c0-11.22-6.03-20.59-18.5-20.59
		c-14.68,0-26.46,15.18-26.46,35.51c0,12.95,4.38,21.71,4.38,21.71S89.6,224.17,86.96,235.3c-2.46,10.43-2.78,21.93-2.39,31.51
		C36.23,245.59,2.45,197.33,2.45,141.15C2.45,65.38,63.88,3.96,139.64,3.96S276.83,65.38,276.83,141.15z"/>
</g>
</svg>
