<?xml version="1.0" encoding="utf-8"?>
<!-- Generator: Adobe Illustrator 27.4.0, SVG Export Plug-In . SVG Version: 6.00 Build 0)  -->
<svg version="1.1" id="Capa_1" xmlns="http://www.w3.org/2000/svg" xmlns:xlink="http://www.w3.org/1999/xlink" x="0px" y="0px"
	 viewBox="0 0 800 800" style="enable-background:new 0 0 800 800;" xml:space="preserve">
<style type="text/css">
	.st0{fill:#4D4D4D;}
</style>
<g>
	<path class="st0" d="M781.05,684.25L597.13,500.31c31.25-49.75,49.39-108.55,49.39-171.66C646.52,150.12,501.78,5.4,323.25,5.4
		S0,150.12,0,328.65C0,507.2,144.71,651.9,323.25,651.9c68.68,0,132.29-21.47,184.63-57.95l181.74,181.75
		c12.63,12.61,29.18,18.9,45.72,18.9c16.55,0,33.09-6.28,45.74-18.9C806.31,750.43,806.31,709.51,781.05,684.25z M323.25,547.17
		c-120.67,0-218.5-97.83-218.5-218.5s97.83-218.51,218.5-218.51c120.68,0,218.5,97.83,218.5,218.51S443.93,547.17,323.25,547.17z"/>
</g>
</svg>
