<?xml version="1.0" encoding="utf-8"?>
<!-- Generator: Adobe Illustrator 27.4.1, SVG Export Plug-In . SVG Version: 6.00 Build 0)  -->
<svg version="1.1" id="Layer_1" xmlns="http://www.w3.org/2000/svg" xmlns:xlink="http://www.w3.org/1999/xlink" x="0px" y="0px"
	 viewBox="0 0 664 664" style="enable-background:new 0 0 664 664;" xml:space="preserve">
<path id="形状" d="M598.7,396.9c27.6,0,50,22.4,50,50v133.3c0,46-37.3,83.3-83.3,83.3H98.7c-46,0-83.3-37.3-83.3-83.3V446.9
	c0-27.6,22.4-50,50-50s50,22.4,50,50v116.7h433.3V446.9C548.7,419.2,571.1,396.9,598.7,396.9z M373.2,17.6l135.5,135.5
	c19.5,19.5,19.5,51.2,0,70.7s-51.2,19.5-70.7,0L382,167.7v279.1c0,27.6-22.4,50-50,50s-50-22.4-50-50v-279l-56.1,56.1
	c-19.5,19.5-51.2,19.5-70.7,0s-19.5-51.2,0-70.7L290.8,17.6C313.6-5.2,350.5-5.2,373.2,17.6z"/>
</svg>
