<?xml version="1.0" encoding="utf-8"?>
<!-- Generator: Adobe Illustrator 27.4.1, SVG Export Plug-In . SVG Version: 6.00 Build 0)  -->
<svg version="1.1" id="Layer_1" xmlns="http://www.w3.org/2000/svg" xmlns:xlink="http://www.w3.org/1999/xlink" x="0px" y="0px"
	 viewBox="0 0 664 664" style="enable-background:new 0 0 664 664;" xml:space="preserve">
<g id="Arrow__x2F__Arrow_x5F_Up_x5F_Right_x5F_SM">
	<g id="Vector">
		<path d="M66.4,664c-17,0-34-6.5-47-19.4c-25.9-25.9-25.9-68,0-93.9l417.8-417.8H199.2c-36.7,0-66.4-29.7-66.4-66.4
			c0-36.7,29.7-66.4,66.4-66.4h398.4c0.1,0,0.1,0,0.2,0c0.1,0,0.1,0,0.2,0c0.1,0,0.1,0,0.2,0c9,0.1,17.5,1.9,25.3,5.2
			c6.9,2.9,13.5,7.1,19.3,12.5c1.1,1,2.2,2.1,3.3,3.3c0,0,0,0,0,0c0,0,0.1,0.1,0.1,0.1c0,0,0,0,0.1,0.1c0,0,0,0,0,0
			c5.6,6,9.8,12.7,12.8,19.9c3.1,7.6,4.9,15.9,5,24.5c0,0,0,0,0,0c0,0.1,0,0.1,0,0.2c0,0,0,0,0,0.1c0,0,0,0.1,0,0.1c0,0,0,0.1,0,0.1
			c0,0,0,0,0,0.1c0,0.1,0,0.1,0,0.2c0,0,0,0,0,0v398.4c0,36.7-29.7,66.4-66.4,66.4c-36.7,0-66.4-29.7-66.4-66.4V226.7L113.4,644.6
			C100.4,657.5,83.4,664,66.4,664z"/>
	</g>
</g>
</svg>
